<?xml version="1.0" encoding="utf-8"?>
<!-- Generator: Adobe Illustrator 22.0.1, SVG Export Plug-In . SVG Version: 6.00 Build 0)  -->
<svg version="1.1" id="_x32__2_" xmlns="http://www.w3.org/2000/svg" xmlns:xlink="http://www.w3.org/1999/xlink" x="0px" y="0px"
	 viewBox="0 0 566.2 675.8" style="enable-background:new 0 0 566.2 675.8;" xml:space="preserve">
<style type="text/css">
	.st0{fill:#FFCF9F;}
	.st1{fill:#664239;}
	.st2{fill:#FFFFFF;}
	.st3{fill:#422924;}
	.st4{fill:#AA2929;}
	.st5{fill:#771212;}
	.st6{fill:#3276A5;}
	.st7{fill:#FF7C1A;}
	.st8{fill:#3A231F;}
	.st9{fill:none;}
	.st10{fill:#540A0A;}
	.st11{fill:#1D5472;}
	.st12{fill:#D15400;}
	.st13{fill:#231F20;}
</style>
<path class="st0" d="M556.9,518.1c-5.8-14.7-28.1-44.5-34.8-69.2c-6.7-10.7-16.7-10.7-22-0.4c-4.8,9.3-4.9,19.7-2.1,32.4
	c3.1,14.2,12.1,26.4,17.2,40c5.4,14.3,6.2,30.9-1,44.4c-7.2,13.4-21.4,18.2-36,13.9c3.8-26.7,6.2-54.6,5.5-76.9
	c-1.3-37.7-9.2-75.5-25.9-109.3c-17.2-34.9-43.1-64.7-62.8-98.3c0.6-15.5,4.4-38.6-20.2-74.4c5.4-11.7,6.7-23.6,3.6-33l-2.3-93.7
	l-55.3-66.3C258.3-0.7,184.7-9,121.5,17.6L68.8,76.2l-12.4,98.5c-6.8,21.6,1.3,45.4,17.4,63.4c7.2,8.1,10.3,11.3,11.5,12.5
	c-11.2,24.8-13.2,53.5-5.6,79.6l7.8,21.4c19.4,76.7,27.9,165.8,21.3,244.7l-4.3-0.2c-8.8-1.5-21.5,5.4-25.5,15.5
	c-4,10.2,0.1,22.1,8.2,29.5c6.3,5.7,14.8,5.8,18.6,4.5l-4.7-5.2c5.5,5.1,13,6,21.1,6.9c5.6,0.6,12.1-0.2,17.3-2.3
	c6.6-2.7,11.8-7,14.1-13.3c0,0,0.1,0,0.1,0l-0.5,2c0.2-0.7,0.4-1.3,0.5-2c22.7-1,81-1.7,103.5-2.7l8.8-3.1c2,2.3,16,2.8,32.5,2.4
	l0.3,3.3c-12,0.7-18.2,12.5-17.4,21c0.8,8.5,7.4,20.3,23.8,16.6v-0.3c4.6,4.6,21.3,12.3,28.3-3.3l0.8,0.1c4.5,5.4,11.8,8.4,18.7,7.2
	c6.9-1.2,12.9-7,13.9-13.9s-4-21.1-12.3-22.7l15.3-0.3c32.7-0.3,69.1-0.5,97.7-4.3l1.3-1.3c2-9,4.1-19,5.9-29.5
	c11.5,8.3,25.2,14.3,39.4,15c21.1,1,40.3-15.7,47.2-35.7C568.2,560.1,564.6,537.8,556.9,518.1z M204.5,606.9
	c-7.1,1-16.4,2.3-23.3,0.3l-3.3-1c-2.3-1.8-5-1.2-7.4,0.4l-1.9-1.9c-3.6-2.6-7-2-9.8,0.4c4.2-32.8,4.2-72.6,6.5-100l1.1,3.1
	c2,4,6.8,14.5,7.3,15.5l1,4.4c-8,14-4,37.6,2.2,50.9c6.2,13.2,18,23.3,31.4,29L204.5,606.9z"/>
<path class="st1" d="M556.9,518.1c-5.8-14.7-28.1-44.5-34.8-69.2c-6.7-10.7-16.7-10.7-22-0.4c-4.8,9.3-4.9,19.7-2.1,32.4
	c3.1,14.2,12.1,26.4,17.2,40c1.9,5,5.7,9.2,5.3,14.5c7.2-12.7,6.6-29.5-1.6-41.6c4.6,7.9,9.3,15.9,13.9,23.8
	c2.6-5,2.8-11.2,0.6-16.4c3.5,4.4,7,8.8,10.6,13.2c2.4-4.4,1.3-10.3-2.4-13.6C546.3,506.5,552.1,512.4,556.9,518.1z"/>
<path class="st1" d="M140.9,169c14.4-7,27.1-17.6,36.6-30.5c5.7-7.8,10.4-16.9,10.2-26.5s-6.7-19.6-16.2-21.2
	c-9.4-1.5-18.1,5.1-27.4,7.3c-11.9,2.8-24.4-1.6-36.4,0.3c-14.6,2.3-27,14.7-29.7,29.3s4,30.3,16.1,38.9s28.8,9.8,42.3,3.6"/>
<path class="st1" d="M289.8,173.8c-13.9-7.9-25.9-19.3-34.5-32.8c-5.2-8.1-9.3-17.5-8.5-27.1c0.8-9.6,7.9-19.2,17.5-20.1
	c9.5-0.9,17.7,6.3,26.9,9.1c11.6,3.6,24.4,0,36.3,2.6c14.5,3.2,26,16.4,27.8,31.2c1.8,14.7-6,30-18.6,37.8
	c-12.6,7.8-29.4,7.9-42.5,0.9"/>
<path class="st1" d="M109.6,1.4c7.7,7.9,13.9,18.9,11,29.6c-2,7.2-7.7,12.7-13.1,17.9C97.6,58.4,88,68.6,82.2,81.1
	c-8.6,18.8-7.4,40.3-7.8,61c-0.1,8.2-0.6,16.7-4.6,23.9s-12.2,12.7-20.2,10.8c-6.8-1.6-11.4-7.8-15.2-13.7
	c-10.3-15.7-19.7-32-26.9-49.3c-3.2-7.8-6-16-6.5-24.5s1.7-17.4,7.3-23.7C18,54.6,34.5,53.7,46.8,46c10.1-6.4,16.7-17,24.7-25.9
	s25.3-22,37-19.5L109.6,1.4z"/>
<path class="st1" d="M333.8,10.9c-8.2,7.4-14.4,15.8-12.2,26.6c1.5,7.3,6.8,13.2,11.9,18.7c9.2,10.2,18.3,21,23.2,33.8
	c7.4,19.3,4.8,40.7,3.8,61.3c-0.4,8.2-0.4,16.7,3,24.1s11.4,13.4,19.4,12c6.9-1.2,11.9-7.1,16.1-12.7c11.3-15,21.7-30.6,30-47.5
	c3.7-7.6,7.1-15.6,8-24s-0.5-17.4-5.7-24.1c-8.8-11.5-25.3-13.5-37-22c-9.7-7-15.5-18-23-27.4S347.6,7.5,335.8,9.2L333.8,10.9z"/>
<path class="st1" d="M212.5,125.9c-12.3-0.7-21,2.4-34,13.7c-13,11.3-17.3,22.7-42.2,30.8c-9.2,3-18.7,4.8-28,7.5
	c-9.3,2.7-18.6,7.7-23.1,16.3c-6.7,12.9,0,28.6,8.3,40.5c27.4,38.9,74.8,62.7,122.4,62.1s94.1-25.5,121.5-64.5
	c4-5.7,7.6-11.7,9.2-18.5c1.6-6.7,0.8-14.3-3.3-19.8c-5.9-7.9-21.5-9.1-30.9-12c-22.6-7-27-7.7-56.2-36.6
	c-13.5-13.4-16.5-18.4-42.1-19.4H212.5z"/>
<path class="st2" d="M272.4,140.7c-0.2-15.9,12.5-29,28.4-29.2c1.8,0,3.6,0.1,5.3,0.4c13.5,2.3,23.8,13.9,24,28
	c0.2,15.9-12.5,29-28.4,29.2h-0.6C285.4,169.1,272.6,156.5,272.4,140.7z"/>
<path class="st2" d="M105,134.4c-0.2-15.9,12.5-29,28.4-29.2c1.8,0,3.6,0.1,5.3,0.4c13.5,2.3,23.8,13.9,24,28
	c0.2,15.9-12.5,29-28.4,29.2h-0.6C118.1,162.8,105.3,150.1,105,134.4z"/>
<path class="st3" d="M212.8,185.3c0.4,0,8.4-3.5,12.4-5.9s7.1-5.6,7.1-5.6s10.1,0.5,13-10.8s-4.3-18.1-4.8-18.4s-8.5-4.9-11.5-6.1
	s-15.4-2.4-15.4-2.4s-16.6-2.4-25.5,4.4s-8.4,13-8.6,13.4s-1.4,9.3,1.9,13.5s9.5,6.1,9.5,6.1s3.1,4.9,9,7.5S212.8,185.3,212.8,185.3
	z"/>
<path class="st4" d="M119.8,210.1c0,0,10.8,17.1,36.6,34.4s48.4,19.9,48.4,19.9s29.3-1.8,46.5-8.1c17.2-6.4,32.9-20.4,33.2-20.5
	s8.5-9.1,9.6-11.5c0,0-16.8,13.1-42.1,7.6s-38.6-20.8-40.5-20.3s-12.1,13.4-39.8,16s-48.4-14.5-48.4-14.5L119.8,210.1z"/>
<path class="st5" d="M190.6,224.6c0,0,3.8,5.8-6.1,21.5c-10.7,17-13.5,36.1,16,40.4s38.4-12.9,40.4-23c2-10.1-1.5-18.9-1.5-18.9
	s-4.8-12-5.1-12.8s-4.4-9-4.4-9l-17.4-11.3L190.6,224.6z"/>
<path class="st6" d="M253.8,290.4c39.1-5.2,76.2-21.1,102.9-45.7l18.7-22.8c1.3,5.3,1.2,19-6.3,31.3c-16.7,27.2-51.3,46.3-81.5,56.5
	c-30.3,10.2-62.9,11.8-94.7,8.6c-22.1-2.2-44.4-6.7-64-17.2c-19.6-10.5-36.4-27.5-43.1-48.8l11.6,6.5l18,10.3l27.3,9.3
	c0,0,18,15.3,60.7,17.3S253.8,290.4,253.8,290.4z"/>
<path class="st7" d="M198,323.8c-13.6,3.7-25,13.6-25.5,27.6c-0.5,14,9,27.9,22.3,32.5c8.4,2.9,18.1,2.2,25.7-2.5
	c10.8-6.6,15.9-21.1,12-33.2c-3.9-12.1-14.6-26.4-33.5-24.5L198,323.8z"/>
<path class="st8" d="M85.5,250.2c-5.1,12.7-8.1,26.1-8.8,39.6c-0.4,6.7-0.2,13.5,0.5,20.2c0.7,6.7,2,13.3,3.9,19.8
	c1.9,6.5,4.3,12.8,7.3,18.8c2.9,6.1,6.5,11.8,10.4,17.4c3.9,5.5,8.3,10.7,13.1,15.5c4.8,4.8,10,9.2,15.5,13.2
	c-5.9-3.4-11.4-7.6-16.6-12.1c-5.1-4.6-9.8-9.7-14-15.1c-4.2-5.5-7.9-11.3-11-17.5c-3.1-6.2-5.7-12.6-7.6-19.2
	c-1.9-6.6-3.2-13.5-3.9-20.3c-0.6-6.9-0.7-13.8-0.1-20.7c0.6-6.9,1.9-13.7,3.7-20.3C79.9,262.8,82.3,256.3,85.5,250.2z"/>
<path class="st8" d="M374.8,220.2c6.5,8.4,11.6,17.8,15.3,27.8c0.9,2.5,1.7,5.1,2.5,7.6c0.7,2.6,1.3,5.2,1.9,7.8
	c0.5,2.6,0.9,5.3,1.3,7.9l0.7,8l0.1,8c-0.2,2.7-0.3,5.3-0.5,8c-0.4,2.6-0.7,5.3-1.1,7.9c-0.6,2.6-1.1,5.2-1.7,7.8
	c-2.7,10.3-7,20.2-12.7,29.1c4.6-9.5,8.2-19.4,10.4-29.6c0.5-2.6,0.9-5.1,1.4-7.7c0.3-2.6,0.6-5.2,0.9-7.8l0.4-7.8l-0.1-7.8
	c-0.5-10.4-2.4-20.7-5.6-30.7C384.7,238.9,380.2,229.3,374.8,220.2z"/>
<path class="st8" d="M163,427.5c4,1.5,7.8,3.5,11.4,5.7c1.8,1.1,3.6,2.3,5.4,3.5c1.7,1.2,3.4,2.5,5.1,3.8c3.3,2.6,6.5,5.5,9.5,8.6
	c3,3.1,5.7,6.3,8.1,9.9c-3.3-2.7-6.5-5.4-9.7-8.1c-3.2-2.7-6.5-5.3-9.7-7.9l-2.5-2c-0.8-0.6-1.7-1.3-2.5-1.9l-5-3.8
	C169.8,432.6,166.4,430.1,163,427.5z"/>
<path class="st8" d="M225.5,464c2.3-3.3,5-6.3,7.9-9.2c1.4-1.4,2.9-2.8,4.5-4.1c1.5-1.3,3.1-2.6,4.7-3.8c3.2-2.4,6.6-4.6,10.1-6.6
	c3.5-2,7.2-3.7,11-5.1c-3.2,2.4-6.5,4.7-9.7,7c-3.2,2.3-6.4,4.7-9.6,7.1l-2.4,1.8c-0.8,0.6-1.6,1.2-2.4,1.8l-4.7,3.7
	C231.9,459,228.8,461.5,225.5,464z"/>
<path class="st8" d="M87.5,351.6c5.6,19.8,10.1,39.9,13.7,60.2c3.6,20.3,6.3,40.7,8.2,61.2l1.2,15.4l0.9,15.4l0.5,15.4
	c0.1,5.1,0.1,10.3,0.2,15.4c0,20.6-1,41.2-3.3,61.6l0.3-7.7l0.4-7.7l0.4-15.4l0.1-15.4l-0.2-15.4l-0.5-15.4l-0.7-15.4l-1-15.4
	l-1.3-15.3l-1.5-15.3l-1.8-15.3l-2-15.3l-2.2-15.2C95.7,391.8,91.9,371.6,87.5,351.6z"/>
<path class="st8" d="M108.8,596.6c-3.6-0.7-7.3-0.4-10.8,0.6c-3.5,1-6.7,2.7-9.5,4.8c-2.8,2.1-5.3,4.7-7,7.7c-1.7,3-2.5,6.4-2.5,9.9
	c0,3.5,0.7,6.9,2,10.2c1.3,3.3,3.2,6.3,5.6,9c1.2,1.3,2.5,2.5,3.9,3.5c1.4,1,3,1.8,4.7,2.4c1.7,0.6,3.5,1,5.3,1.2
	c1.8,0.2,3.6,0.2,5.5-0.2c-7,2.6-15.7,0.5-21-5.2c-2.7-2.7-4.9-5.9-6.5-9.5c-1.5-3.6-2.4-7.4-2.3-11.4c0.1-3.9,1-7.9,3.1-11.2
	c2.1-3.4,4.9-6.1,8.1-8.2c3.2-2.1,6.8-3.6,10.5-4.3C101.4,595.1,105.3,595.2,108.8,596.6z"/>
<path class="st8" d="M153.1,633.6c2.3-10.5,3.7-21.2,4.7-31.8c0.5-5.3,1-10.7,1.3-16l0.6-8l0.5-8l0.9-16.1c0.3-5.4,0.6-10.7,1-16.1
	c0.7-10.7,1.5-21.5,3-32.2l-0.7,32.3c-0.1,5.4-0.3,10.8-0.5,16.1c-0.2,5.4-0.5,10.8-0.8,16.1c-0.7,10.8-1.5,21.5-3,32.2
	C158.7,612.7,156.6,623.4,153.1,633.6z"/>
<path class="st8" d="M157.1,631.2c8.3-1,16.6-1.5,25-1.9c4.2-0.2,8.3-0.3,12.5-0.5l12.5-0.3l12.5-0.1c4.2,0,8.3,0,12.5,0
	c8.3,0,16.7,0.2,25,0.5c-8.3,1-16.6,1.5-25,1.9c-4.2,0.2-8.3,0.3-12.5,0.5l-12.5,0.3l-12.5,0.1c-4.2,0-8.3,0-12.5,0
	C173.8,631.7,165.5,631.5,157.1,631.2z"/>
<path class="st8" d="M382.5,607.9c-1.7-0.6-3.3-1.1-4.9-1.3c-1.6-0.2-3.2,0.1-4.4,0.8c-1.2,0.8-2.1,1.9-2.8,3.3
	c-0.7,1.4-1.1,2.9-1.4,4.5c-0.6,3.2-0.8,6.6-0.7,9.9c0.1,1.7,0.2,3.4,0.5,5c0.3,1.7,0.6,3.3,1.3,4.9c-1.3-1.2-2.1-2.9-2.7-4.6
	c-0.6-1.7-1.1-3.4-1.4-5.2c-0.6-3.5-0.7-7.2,0-10.8c0.4-1.8,0.9-3.6,1.9-5.3c0.9-1.7,2.3-3.3,4.2-4.1c0.2-0.1,0.5-0.2,0.7-0.3
	l0.7-0.2c0.5-0.2,1-0.1,1.5-0.2c0.5,0,1,0.1,1.4,0.1c0.5,0.1,0.9,0.2,1.4,0.3C379.6,605.8,381.1,606.8,382.5,607.9z"/>
<path class="st8" d="M369.8,635.9c8.1-0.7,16.3-1.1,24.4-1.4c4.1-0.2,8.1-0.3,12.2-0.5l12.2-0.4l12.2-0.4l12.2-0.4
	c8.1-0.3,16.3-0.7,24.4-1.2c-8,1.7-16.1,2.7-24.3,3.5c-4.1,0.4-8.1,0.7-12.2,0.9c-4.1,0.2-8.2,0.4-12.2,0.6
	c-4.1,0.1-8.2,0.2-12.2,0.2c-4.1,0-8.2,0-12.2,0C386.1,636.7,378,636.4,369.8,635.9z"/>
<path class="st8" d="M399.5,607.6c-3.6-2.7-6.8-6.1-9.4-9.9c-2.6-3.8-4.7-7.8-6.5-12.1c-3.5-8.5-5.6-17.4-6.9-26.5
	c-1.2-9.1-1.6-18.3-1.1-27.4c0.2-4.6,0.7-9.1,1.4-13.7c0.7-4.5,1.7-9.1,3.1-13.5c2.8-8.8,6.9-17.2,12.7-24.5
	c5.8-7.3,13.2-13.4,21.8-17c4.3-1.8,8.8-3,13.4-3.7c4.6-0.6,9.3-0.6,13.8,0c9.1,1.2,18,5.2,24.4,11.7c-3.5-3-7.4-5.3-11.5-7
	c-4.2-1.7-8.6-2.6-13-3.1c-8.9-0.8-18,0.7-26,4.4c-8.1,3.6-15,9.5-20.5,16.5c-5.5,7-9.5,15.1-12.3,23.6c-1.4,4.3-2.4,8.6-3.2,13
	c-0.7,4.4-1.2,8.9-1.5,13.4c-0.6,9-0.5,18,0.5,27c1,9,2.9,17.8,6,26.3c1.6,4.2,3.5,8.3,6,12.1C393,601.2,396,604.7,399.5,607.6z"/>
<path class="st8" d="M394.9,294.6c3.9,6.4,8.1,12.6,12.3,18.8c4.2,6.2,8.6,12.2,12.9,18.3c8.7,12.2,17.4,24.4,25.4,37.1
	c4.1,6.3,7.8,12.9,11.3,19.5c3.5,6.7,6.6,13.5,9.4,20.5c2.8,7,5.3,14.1,7.4,21.3c2.1,7.2,4,14.5,5.5,21.9c1.5,7.4,2.7,14.8,3.6,22.3
	c0.9,7.5,1.5,15,1.9,22.5c0.4,7.5,0.4,15,0.2,22.5c-0.2,7.5-0.8,15-1.4,22.5c-2.7,29.9-7.6,59.5-14.7,88.6c1.5-7.3,2.9-14.7,4.2-22
	c1.2-7.4,2.4-14.8,3.5-22.2c2.1-14.8,3.8-29.7,4.9-44.5c0.5-7.4,0.9-14.9,1-22.4c0.1-7.5,0.1-14.9-0.3-22.3
	c-0.4-7.4-1.1-14.9-2-22.2c-1-7.4-2.2-14.7-3.7-22c-3.1-14.6-7.1-28.9-12.6-42.7c-5.4-13.9-12.4-27-20.1-39.8
	c-7.7-12.8-16.2-25.1-24.6-37.4C410.5,320.2,402.2,307.7,394.9,294.6z"/>
<path class="st8" d="M384.7,634.1c-1.2-1.3-2-2.9-2.6-4.5c-0.6-1.6-1.1-3.3-1.4-5c-0.7-3.4-1-6.9-0.6-10.5c0.2-1.8,0.5-3.6,1.4-5.5
	c0.5-0.9,1.3-1.9,2.4-2.4c1.1-0.5,2.2-0.6,3.2-0.5c2,0.2,3.6,0.9,5.2,1.6c1.6,0.7,3.1,1.6,4.6,2.5c-1.7-0.2-3.4-0.6-5.1-0.9
	c-1.7-0.3-3.3-0.7-4.8-0.6c-0.7,0-1.4,0.1-1.8,0.4c-0.4,0.3-0.8,0.7-1.1,1.3c-0.6,1.2-0.9,2.8-1.1,4.4c-0.4,3.2-0.4,6.6-0.2,9.9
	c0.1,1.7,0.3,3.3,0.6,5C383.6,630.9,384,632.6,384.7,634.1z"/>
<path class="st8" d="M399.5,633.9c-1-1.6-1.6-3.4-2.1-5.1c-0.5-1.8-0.9-3.6-1.2-5.4c-0.3-1.8-0.5-3.7-0.6-5.6
	c-0.1-1.9-0.1-3.8,0.2-5.8c0.1-0.5,0.2-1,0.4-1.5c0.2-0.5,0.4-1.1,0.8-1.6c0.7-1,1.8-1.7,2.9-2.1c2.1-0.8,4.3-0.6,6.2-0.1
	c3.8,1.1,7.1,3.5,9.2,6.6c-3.1-2.1-6.3-3.7-9.7-4.1c-1.6-0.2-3.3-0.2-4.6,0.4c-0.6,0.3-1.2,0.6-1.5,1.1c-0.3,0.4-0.5,1.1-0.7,1.9
	c-0.3,1.6-0.4,3.4-0.4,5.2c0,1.8,0,3.6,0.1,5.4c0.1,1.8,0.2,3.6,0.3,5.4C398.8,630.3,399,632.1,399.5,633.9z"/>
<path class="st8" d="M478.1,579.2c4.4,1.2,9.1,1.7,13.6,1.1c4.5-0.5,8.9-2.1,12.6-4.7c3.7-2.6,6.8-6,8.9-10c2.2-4,3.6-8.3,4.5-12.7
	c1.7-8.9,0.8-18.2-1.8-26.8c-2.6-8.7-7.1-16.7-11.3-24.9c-2.1-4.1-4.1-8.3-5.7-12.7c-0.8-2.2-1.5-4.4-2-6.7c-0.5-2.3-1-4.5-1.3-6.9
	c-0.7-4.6-1-9.3-0.6-14c0.5-4.7,1.8-9.4,4.1-13.6c1.2-2.1,2.7-4.2,4.7-5.7c2-1.5,4.7-2.5,7.4-2.3c2.7,0.2,5.1,1.4,7,2.9
	c2,1.5,3.5,3.5,4.9,5.5l0.1,0.2l0.1,0.1c0.4,0.8,0.1,0.3,0.2,0.5l0.1,0.4l0.2,0.8c0.2,0.5,0.3,1.1,0.5,1.6c0.3,1.1,0.7,2.1,1.1,3.2
	c0.8,2.1,1.6,4.2,2.5,6.3c1.8,4.2,3.8,8.3,5.9,12.3c4.2,8.1,8.8,16,13.5,23.9c2.3,4,4.6,7.9,6.8,12c1.1,2,2.2,4.1,3.1,6.2
	c1,2.2,1.7,4.3,2.5,6.5c3.1,8.7,5.2,17.8,6.1,27.1c0.4,4.6,0.5,9.3,0.1,14c-0.4,4.6-1.2,9.3-2.5,13.8c-1.3,4.5-3.1,8.9-5.4,12.9
	c-2.3,4-5.1,7.8-8.3,11.2c-6.4,6.7-14.6,12-23.6,14.3c-4.5,1.1-9.3,1.5-13.9,1c-4.6-0.4-9.2-1.4-13.6-2.8c-4.4-1.4-8.6-3.3-12.7-5.4
	c-4.1-2.2-7.9-4.7-11.6-7.4c7.5,5.2,15.8,9.5,24.5,12.1c4.4,1.3,8.9,2.1,13.4,2.4c4.5,0.4,9.1-0.1,13.4-1.3
	c8.7-2.4,16.5-7.6,22.6-14.2c3.1-3.3,5.7-7,7.9-10.9c2.2-3.9,3.8-8.1,5-12.5c2.3-8.7,2.8-17.9,2-26.8c-0.9-9-3-17.9-6.1-26.4
	c-0.8-2.1-1.6-4.3-2.5-6.3c-0.9-2-2-4.1-3.1-6c-2.2-4-4.5-7.9-6.8-11.9c-4.7-7.9-9.4-15.8-13.7-24c-2.1-4.1-4.1-8.3-5.9-12.5
	c-0.9-2.1-1.8-4.3-2.5-6.5c-0.4-1.1-0.8-2.2-1.1-3.3c-0.2-0.6-0.3-1.1-0.5-1.7l-0.2-0.8l-0.1-0.4c0.1,0.1-0.2-0.5,0.1,0.3l-0.1-0.1
	l-0.1-0.2c-1.2-1.8-2.6-3.5-4.2-4.8c-1.6-1.3-3.5-2.2-5.5-2.3c-1.9-0.1-3.9,0.5-5.5,1.7c-1.6,1.2-3,2.9-4,4.8
	c-2.1,3.9-3.4,8.2-3.8,12.6c-0.4,4.4-0.2,8.9,0.5,13.4c0.3,2.2,0.8,4.5,1.3,6.7c0.5,2.2,1.2,4.3,1.9,6.5c1.5,4.3,3.4,8.4,5.4,12.5
	c4,8.2,8.5,16.4,11,25.4c2.5,8.9,3.3,18.5,1.4,27.6c-1,4.6-2.6,9-4.9,13c-2.3,4-5.6,7.6-9.5,10.1c-3.9,2.5-8.4,4-13,4.4
	C487.1,581.2,482.5,580.6,478.1,579.2z"/>
<path class="st8" d="M280.2,426.2c0.9,4.2,1.8,8.4,2.7,12.6l2.5,12.7c0.8,4.2,1.6,8.5,2.3,12.7l2.1,12.8l1.9,12.8l1.8,12.8l1.6,12.8
	l1.4,12.9c1.7,17.2,3,34.4,3.6,51.6l0.4,12.9l0.1,12.9l-0.1,12.9l-0.4,12.9l0,1l-1,0c-2.5,0.1-5,0.8-7.1,2c-2.2,1.2-4.1,2.9-5.6,5
	c-3,4.1-4.6,9.4-3.8,14.4c0.8,5.1,3.4,10,7.7,12.9c2.2,1.5,4.7,2.3,7.3,2.7c2.6,0.4,5.3,0.1,7.9-0.4c-2.6,0.6-5.2,1-7.9,0.8
	c-2.7-0.2-5.3-1-7.6-2.4c-2.3-1.4-4.3-3.4-5.7-5.7c-1.4-2.3-2.4-4.9-3-7.6c-0.5-2.7-0.4-5.6,0.3-8.2c0.7-2.7,1.8-5.2,3.4-7.5
	c1.6-2.3,3.7-4.2,6.1-5.6c2.4-1.4,5.2-2.2,8-2.4l-1,1.1l0.1-12.9l-0.1-12.9l-0.3-12.9L297,580c-0.8-17.2-1.9-34.3-3.5-51.4
	l-1.2-12.8l-1.4-12.8l-1.5-12.8l-1.6-12.8l-1.8-12.8l-1.8-12.8l-1.9-12.8L280.2,426.2z"/>
<path class="st8" d="M364.1,411.6c0.2,19,0.3,37.9,0.2,56.9c0,9.5-0.2,18.9-0.2,28.4l-0.4,28.4l-0.6,28.4
	c-0.3,9.5-0.4,18.9-0.7,28.4c-0.5,18.9-1.3,37.9-2.2,56.8c-0.2-19-0.3-37.9-0.2-56.9c0-9.5,0.2-18.9,0.3-28.4l0.4-28.4l0.6-28.4
	c0.2-9.5,0.4-18.9,0.8-28.4C362.5,449.5,363.2,430.6,364.1,411.6z"/>
<path class="st8" d="M325.5,637.6c-3.5-1-7.1-1.3-10.5-0.5c-3.4,0.7-6.5,2.3-8.9,4.6c-2.4,2.2-4,5.3-4.7,8.6
	c-0.7,3.3-0.6,6.8,0.4,10c0.9,3.2,2.7,6.3,5.1,8.5c2.6,2.1,5.8,3.8,9.1,4.7c3.3,0.9,6.9,1,10.1-0.4c3.2-1.4,5.7-4.2,7.4-7.4
	c-0.6,1.7-1.5,3.4-2.6,4.8c-1.1,1.5-2.5,2.8-4.2,3.7c-1.7,0.9-3.5,1.5-5.4,1.7c-1.9,0.2-3.8,0.1-5.7-0.3c-1.9-0.4-3.7-1-5.4-1.8
	c-1.7-0.8-3.4-1.7-4.9-2.9c-3.1-2.5-5.2-6-6.3-9.7c-1.1-3.7-1.3-7.7-0.5-11.5c0.8-3.8,2.7-7.5,5.7-10.1c1.5-1.3,3.2-2.3,5-3
	c1.8-0.7,3.7-1.2,5.6-1.4C318.5,634.8,322.3,635.7,325.5,637.6z"/>
<path class="st8" d="M331.6,644.4c-1.6,3.5-1.9,7.4-1.1,11.1c0.4,1.8,1,3.6,1.8,5.2c0.8,1.6,1.9,3.2,3.1,4.5c2.5,2.7,5.6,4.6,9,5.7
	c3.4,1.1,7.1,1.1,10.4,0c1.7-0.5,3.2-1.4,4.7-2.5c1.4-1.1,2.7-2.3,3.7-3.8c1-1.5,1.8-3.1,2.2-4.8c0.5-1.7,0.4-3.5,0.3-5.3
	c-0.4-3.7-1.5-7.3-3.2-10.7c-0.9-1.7-1.9-3.2-3.2-4.6c-1.3-1.3-2.9-2.5-4.8-3c1.9,0.3,3.7,1.2,5.2,2.5c1.5,1.3,2.8,2.8,3.8,4.5
	c1.1,1.7,1.9,3.4,2.6,5.3c0.7,1.8,1.2,3.8,1.6,5.7c0.3,2,0.4,4.1,0,6.1c-0.4,2.1-1.2,4-2.3,5.7c-2.2,3.5-5.7,6.2-9.6,7.6
	c-4,1.4-8.4,1.2-12.3-0.1c-3.9-1.3-7.4-3.7-10-6.8c-2.6-3.2-4.2-7.1-4.6-11C328.5,651.7,329.4,647.6,331.6,644.4z"/>
<path class="st8" d="M134.1,429.2c2.6,5.2,5.1,10.5,7.4,15.8c2.4,5.3,4.7,10.6,7.1,16c4.5,10.7,9,21.5,13.4,32.2
	c4.5,10.7,8.8,21.5,13.4,32.2c4.6,10.7,9.3,21.3,14.5,31.6c2.6,5.2,5.3,10.3,8.2,15.3c2.9,5,5.9,9.9,9.5,14.4
	c7,9.1,15.6,17,25.1,23.5c9.5,6.4,20.2,11.3,31.3,14.3c11.2,3.1,22.8,4.1,34.4,3.8c-11.6,1-23.4,0.2-34.8-2.4
	c-11.4-2.7-22.3-7.4-32.2-13.8c-9.9-6.4-18.7-14.4-26-23.6c-1.8-2.3-3.6-4.7-5.2-7.1c-1.6-2.5-3.1-5-4.6-7.5
	c-2.9-5.1-5.7-10.2-8.3-15.4c-10.4-20.9-19-42.6-27.5-64.3c-4.2-10.9-8.3-21.7-12.6-32.5C143,450.7,138.7,440,134.1,429.2z"/>
<path class="st8" d="M121.5,17.6c3.9-1.7,7.9-3.3,11.8-5l12.2-4.1l12.5-3.3c4.2-0.8,8.4-1.7,12.6-2.5c4.3-0.6,8.5-1.2,12.8-1.7
	c4.3-0.3,8.6-0.7,12.9-0.9c4.3-0.1,8.6-0.2,12.9-0.2c4.3,0.2,8.6,0.3,12.9,0.5c4.3,0.4,8.6,0.8,12.8,1.2c4.3,0.6,8.5,1.2,12.8,1.8
	l12.6,2.5c4.2,1,8.3,2,12.5,3.1c16.6,4.5,32.7,10.6,48,18.1c-4-1.5-8-3.1-12-4.6l-12.1-4.2l-12.2-3.7l-12.3-3.3l-12.5-2.8l-12.6-2.3
	l-12.6-1.7c-4.2-0.4-8.5-0.8-12.7-1.1c-4.2-0.2-8.5-0.4-12.7-0.6c-4.2,0-8.5,0.1-12.7,0.1c-4.2,0.2-8.5,0.5-12.7,0.7l-12.7,1.4
	C154.1,7.4,137.4,11.5,121.5,17.6z"/>
<path class="st8" d="M201.4,165.2c-0.5-1.5-1.2-2.6-2-3.5c-0.8-0.9-1.7-1.3-2.7-1.4c-1-0.1-1.9,0-2.7,0.7c-0.8,0.7-1.5,1.8-1.2,3.4
	c-0.7-0.4-1.1-1.3-1.2-2.1c-0.1-0.9,0.1-1.8,0.6-2.6c0.5-0.8,1.3-1.5,2.2-1.9c0.9-0.4,1.9-0.5,2.8-0.3c0.9,0.1,1.8,0.5,2.6,1
	c0.8,0.6,1.3,1.3,1.7,2.1C202.1,162,202.1,163.8,201.4,165.2z"/>
<path class="st8" d="M232.1,173.6c4.6-0.2,9-2.7,11-6.7c2.1-3.9,2.4-8.6,1.1-12.8c-0.6-2-1.7-4.1-2.8-6c-1.2-1.9-2.6-3.4-4.4-4.6
	c-3.6-2.4-8-3.6-12.4-4.5c-4.4-0.9-9-1.5-13.5-1.7c-4.5-0.3-9.1-0.3-13.4,0.6c-2.2,0.4-4.3,1-6.3,1.9c-2,0.9-3.9,2-5.5,3.5
	c-1.6,1.4-3,3.1-3.9,5c-1,1.9-1.3,4.1-1.3,6.2l0,0.2l0,0.1c-0.4,1.9-0.6,4-0.5,6c0.1,1,0.2,2,0.4,2.9c0.2,0.9,0.7,1.8,1.2,2.7
	c1,1.7,2.4,3.3,4,4.5c1.7,1.2,3.6,2.1,5.7,2.3c-2.1,0-4.2-0.6-6-1.7c-1.8-1.1-3.4-2.6-4.6-4.4c-0.6-0.9-1.2-1.9-1.5-2.9
	c-0.4-1.1-0.6-2.1-0.7-3.2c-0.2-2.2-0.1-4.3,0.2-6.5l0,0.2c-0.2-2.4,0.2-5,1.2-7.2c1-2.3,2.5-4.3,4.3-6c3.6-3.4,8.2-5.4,12.9-6.3
	c4.7-0.9,9.5-1,14.1-0.7c4.7,0.3,9.3,0.9,13.9,1.9c4.6,1,9.2,2.4,13.3,5.2c2,1.4,3.7,3.4,4.9,5.5c0.6,1.1,1.1,2.1,1.6,3.2
	c0.5,1.1,0.9,2.2,1.2,3.4c1.2,4.7,0.6,9.9-2,14c-1.3,2-3.1,3.7-5.3,4.7C236.8,173.3,234.4,173.7,232.1,173.6z"/>
<g>
	<path class="st9" d="M232.1,173.6"/>
</g>
<path class="st8" d="M230.8,165.2c0.3-1.5-0.2-2.5-0.8-3.4c-0.6-0.8-1.5-1.4-2.3-1.5c-0.9-0.1-1.8,0.1-2.8,0.6c-1,0.5-2,1.3-2.8,2.5
	c-0.4-1.5,0.2-3.2,1.4-4.3c1.1-1.2,2.9-2,4.8-1.7c2,0.3,3.4,1.8,3.9,3.4c0.3,0.8,0.3,1.7,0.1,2.5C232,164.2,231.5,164.9,230.8,165.2
	z"/>
<path class="st8" d="M212.1,153.2c1.2,4.7,1.6,9.6,1.9,14.5c0.2,2.4,0.2,4.8,0.3,7.3c0.1,2.4,0,4.8,0.1,7.3
	c-0.1,2.4-0.1,4.8-0.2,7.3c-0.1,2.4-0.2,4.8-0.4,7.3c-0.3,4.8-0.8,9.7-1.7,14.5c-0.4-4.9-0.6-9.7-0.7-14.5c-0.1-2.4-0.1-4.8-0.1-7.2
	l0-7.2l0.1-7.2l0.2-7.2C211.8,162.9,212.1,158.1,212.1,153.2z"/>
<path class="st8" d="M191.5,174.2c3.2,2.3,6.6,4.2,10.1,5.9c1.7,0.8,3.5,1.7,5.2,2.3c1.8,0.7,3.5,1.3,5.3,1.6l-0.3,0
	c0.2,0,0.4,0,0.7,0l-0.4,0.1c1.7-0.5,3.5-1.2,5.2-1.9c1.7-0.7,3.4-1.5,5.1-2.3c1.7-0.8,3.3-1.7,4.9-2.6c1.6-0.9,3.2-2,4.7-3.1
	c-1.1,1.6-2.4,3-3.9,4.3c-1.4,1.3-3,2.4-4.6,3.5c-1.6,1.1-3.3,2-5,2.8c-1.7,0.9-3.5,1.6-5.4,2.2l-0.2,0.1l-0.2,0c-0.2,0-0.4,0-0.7,0
	l-0.2,0l-0.1,0c-2.1-0.4-4-1.1-5.9-2c-1.8-0.9-3.6-1.8-5.3-2.9c-1.7-1.1-3.3-2.3-4.8-3.6C194.1,177.2,192.6,175.8,191.5,174.2z"/>
<path class="st8" d="M104,207.4c-1.4,0.3-2.9-0.5-3.6-1.7c-0.4-0.6-0.7-1.3-0.8-2c-0.1-0.7,0.1-1.5,0.4-2.1c0.6-1.3,1.8-2.3,3.2-2.9
	c1.4-0.6,2.9-0.6,4.3-0.2c2.9,0.7,5.2,2.7,7.1,4.7c1.9,2.1,3.7,4.1,5.8,6c8.1,7.6,18.1,13,28.7,15.8c2.7,0.6,5.4,1.2,8.1,1.5
	c1.4,0.2,2.7,0.3,4.1,0.4c1.4,0.1,2.7,0.1,4.1,0.1c5.5-0.1,11-0.8,16.3-2.2c5.3-1.4,10.5-3.3,15.4-5.7c4.9-2.5,9.5-5.4,13.7-9
	l0.5-0.4l0.6,0l1.1,0l0.5,0l0.4,0.3c8.9,6.8,18,13.2,28.2,17.4c5.1,2.1,10.4,3.6,15.8,4.2c5.4,0.6,10.9,0.3,16.3-0.8
	c5.4-1.2,10.6-3.1,15.6-5.5c5-2.4,9.7-5.4,14.3-8.6c2.3-1.6,4.6-3.2,6.8-4.9l3.4-2.5c1.1-0.8,2.2-1.7,3.4-2.5
	c1.2-0.8,2.5-1.4,3.9-1.7c1.4-0.3,2.9-0.4,4.3,0.1c1.4,0.4,2.6,1.4,3.2,2.7c0.6,1.3,0.7,2.9,0,4.1c0.7-1.3,0.5-2.8-0.2-4
	c-0.7-1.2-1.8-2.1-3.2-2.4c-1.3-0.3-2.7-0.3-4,0.1c-1.3,0.4-2.5,1-3.7,1.8c-1.1,0.8-2.2,1.7-3.3,2.6l-3.3,2.7
	c-2.2,1.8-4.4,3.5-6.7,5.2c-9,6.7-19,12.5-30.2,15.2c-5.6,1.4-11.4,1.8-17.1,1.2c-5.7-0.6-11.3-2.1-16.6-4.2
	c-10.7-4.3-20-10.9-29-17.7l0.8,0.3l-1.1,0l1-0.4c-8.8,7.4-19.4,12.4-30.4,15.1c-5.5,1.4-11.2,2.1-16.9,2.1
	c-5.7,0-11.4-0.9-16.9-2.5c-10.9-3.2-21.1-9-29.1-16.9c-2-2-3.8-4.2-5.6-6.3c-1.8-2.1-3.9-4-6.5-4.7c-1.3-0.4-2.7-0.4-3.9,0.1
	c-1.3,0.4-2.4,1.3-3,2.5c-0.6,1.2-0.6,2.7,0.2,3.8C101.2,206.7,102.6,207.6,104,207.4z"/>
<path class="st10" d="M190.5,224.6c0.8,1.6,1.1,3.4,1.1,5.3c0,1.8-0.4,3.6-0.9,5.3c-1.1,3.5-2.6,6.7-4.3,9.9
	c-1.6,3.2-3.4,6.3-4.9,9.5c-1.5,3.2-2.8,6.5-3.1,9.8c-0.1,1.7,0,3.3,0.5,4.8c0.5,1.6,1.3,3.1,2.2,4.5c1.9,2.8,4.5,5,7.4,6.8
	c5.8,3.6,12.8,5.2,19.7,5.6c3.4,0.2,6.9-0.1,10.2-0.8c3.3-0.8,6.5-2.1,9.4-3.9c2.9-1.8,5.4-4.2,7.3-7c1.9-2.8,3.2-6,4-9.4
	c0.8-3.4,1.2-6.9,1.2-10.4c-0.1-3.5-0.9-7-1.8-10.4c-1.9-6.8-4.9-13.4-7.7-19.9c3.2,6.4,6.4,12.8,8.7,19.6c1.1,3.4,2.1,6.9,2.3,10.6
	c0.2,3.7,0,7.3-0.7,10.9c-0.7,3.6-2,7.1-4,10.3c-2,3.2-4.7,5.9-7.9,7.9c-3.1,2.1-6.6,3.6-10.2,4.4c-3.6,0.9-7.4,1.1-11,1
	c-3.7-0.2-7.3-0.8-10.9-1.8c-3.6-1-7-2.4-10.2-4.4c-3.1-2-6-4.6-8.1-7.8c-1-1.6-1.9-3.3-2.4-5.2c-0.6-1.9-0.7-3.9-0.4-5.8
	c0.5-3.8,2-7.2,3.6-10.4c1.7-3.2,3.6-6.3,5.4-9.3c1.8-3.1,3.6-6.2,4.8-9.5c0.6-1.7,1.1-3.4,1.2-5.1
	C191.2,228.1,191.1,226.3,190.5,224.6z"/>
<path class="st10" d="M211.5,221.4c2.5,3.4,4,7.4,5,11.6c0.9,4.1,1.2,8.4,1.1,12.6c-0.1,4.2-0.8,8.4-2,12.5c-0.3,1-0.6,2-1,3
	c-0.4,1-0.8,2-1.2,2.9c-1,1.9-2,3.8-3.6,5.2c1.9-3.7,2.8-7.7,3.5-11.7c0.7-4,1.1-8,1.2-12.1c0.1-2,0.1-4,0-6.1c0-1-0.1-2-0.1-3
	c-0.1-1-0.1-2-0.3-3C213.7,229.3,212.8,225.3,211.5,221.4z"/>
<path class="st8" d="M117.1,206.9c4.2,5.2,8.7,10.1,13.5,14.7c4.8,4.6,9.8,8.9,15.1,12.9c1.3,1,2.6,2,4,3c1.3,1,2.7,1.9,4,2.9
	c1.3,1,2.7,1.9,4.1,2.8c1.4,0.9,2.7,1.9,4.1,2.8c5.5,3.6,11.2,7.1,16.9,10.6c-6.3-2.4-12.3-5.3-18.1-8.6l-2.2-1.2l-2.1-1.3
	c-1.4-0.9-2.9-1.8-4.3-2.7c-1.4-0.9-2.8-1.9-4.2-2.9c-1.4-1-2.7-1.9-4.1-3c-1.3-1.1-2.7-2.1-3.9-3.2c-1.3-1.1-2.6-2.2-3.8-3.3
	l-3.7-3.5c-1.2-1.2-2.3-2.4-3.5-3.7C124.4,218.2,120.3,212.8,117.1,206.9z"/>
<path class="st8" d="M241.2,259.1c5.2-1.6,10-3.9,14.8-6.3c2.4-1.2,4.7-2.5,7-3.9l3.5-2l3.4-2.1l3.4-2.2c1.1-0.7,2.2-1.5,3.3-2.3
	c2.2-1.5,4.3-3.2,6.4-4.8c4.1-3.4,8.1-6.9,11.6-11.2c-2.4,4.9-6.1,9.2-10,12.9c-2,1.9-4.1,3.6-6.2,5.3c-1.1,0.8-2.2,1.6-3.3,2.4
	l-3.4,2.3c-4.6,2.9-9.4,5.5-14.5,7.6C251.9,256.9,246.6,258.6,241.2,259.1z"/>
<path class="st8" d="M144.5,172.2c1.8-2.7,4.1-5,6.5-7.2c2.4-2.2,5-4.1,7.8-5.8c2.8-1.7,5.7-3.1,8.7-4.3c3-1.2,6.1-2,9.4-2.4
	c-2.8,1.6-5.6,3.1-8.4,4.6c-2.7,1.5-5.5,3.1-8.1,4.7c-2.7,1.6-5.3,3.3-7.9,5.1C149.8,168.5,147.2,170.4,144.5,172.2z"/>
<path class="st8" d="M245.5,152.8c2.9-0.1,5.7,0.5,8.5,1.3c2.8,0.8,5.4,2,7.9,3.5c2.5,1.5,4.8,3.3,6.8,5.3c2,2,3.8,4.3,5.1,6.9
	c-2.3-1.8-4.4-3.5-6.7-5.1c-2.2-1.6-4.5-3.1-6.8-4.5c-2.3-1.4-4.7-2.7-7.2-3.9C250.7,155,248.1,154,245.5,152.8z"/>
<path class="st8" d="M238.8,203.5c0.5,0.3,0.9,0.3,1.2,0.3c0.3-0.1,0.4-0.2,0.4-0.3c-0.1-0.1,0-0.1,0.3-0.1l1.6,1.2
	c-0.3,0-0.6-0.1-0.9-0.2c-0.3-0.1-0.6-0.2-1-0.5c0.1-0.4,0.3-0.7,0.5-1c0.2-0.3,0.4-0.5,0.6-0.7l1.3-1.1l0.3,2.4
	c0.1,0.7-0.2,1.5-0.7,2c-0.5,0.5-1.2,0.8-2,0.7c-0.8-0.1-1.4-0.6-1.7-1.1C238.3,204.7,238.4,203.9,238.8,203.5z"/>
<path class="st8" d="M261.1,192.2c0.2,0.3,0.2,0.6,0.3,0.9c0.1,0.3,0.1,0.5,0.1,0.8l0-1c0-0.2,0-0.3-0.1-0.4c-0.1-0.1-0.3-0.1-0.5,0
	c-0.2,0.2-0.3,0.4-0.3,0.5c0,0.1,0.1,0.3,0.3,0.4l2-0.1c-0.3,0.2-0.6,0.4-1,0.5c-0.4,0.1-0.8,0.2-1.4,0.2c-0.1-0.5-0.1-1,0-1.4
	c0.1-0.4,0.2-0.8,0.3-1.1l0.6-1.3l1.4,1.1c0.6,0.4,0.8,1.1,0.8,1.7c0,0.6-0.3,1.3-0.9,1.7c-0.6,0.4-1.3,0.5-1.8,0.3
	c-0.5-0.2-1-0.6-1.2-1.2l-0.3-0.8l0.3-0.2c0.2-0.2,0.4-0.3,0.7-0.4C260.5,192.4,260.7,192.3,261.1,192.2z"/>
<path class="st8" d="M264.7,214.7c-0.1,0.2-0.1,0.4,0,0.5c0.1,0.1,0.2,0.2,0.3,0.2c0.1,0,0.2,0,0.2-0.1c0-0.1-0.1-0.4-0.3-0.5
	l-1.1,0.1c-0.2,0-0.3,0.2-0.4,0.3c0,0.1,0,0.3,0.2,0.5c0.2,0.2,0.4,0.2,0.5,0.1c0.1-0.1,0.2-0.2,0.1-0.4l-1-1.7
	c0.2,0.1,0.5,0.2,0.7,0.4c0.1,0.1,0.2,0.2,0.4,0.3C264.5,214.5,264.6,214.6,264.7,214.7c-0.1,0.2-0.2,0.4-0.3,0.5
	c-0.1,0.1-0.2,0.2-0.4,0.3c-0.2,0.2-0.5,0.3-0.7,0.5l-2,1l1-2.7c0.2-0.6,0.8-1.1,1.4-1.2c0.6-0.2,1.3,0,1.9,0.5
	c0.6,0.6,0.8,1.3,0.7,1.9c-0.1,0.6-0.5,1.2-1.1,1.6l-0.7,0.3l-0.4-0.2c-0.5-0.2-0.8-0.7-0.9-1.1c-0.1-0.4,0-0.7,0.1-1
	c0.1-0.2,0.4-0.4,0.6-0.6C264.3,214.5,264.6,214.5,264.7,214.7z"/>
<path class="st8" d="M181.4,202.3c0.1,0.4,0.5,0.5,0.7,0.4c0.1,0,0.2-0.1,0.2-0.3c0-0.1-0.1-0.3-0.4-0.4l0,0l-1.2,1.8
	c0.5,0,0.8-0.9,0.2-1.5c0.7-0.4,1.9-0.3,2.7,0.9l1.3,1.9l-2.4-0.2l0,0c-0.5,0-1-0.2-1.2-0.5c-0.3-0.3-0.4-0.6-0.5-0.9
	C180.8,203,181,202.4,181.4,202.3z"/>
<path class="st8" d="M167,189.4c0.2,0.5,0.2,0.9,0.2,1.4c0,0.4,0,0.8-0.1,1.2l-1.4-1.7c-0.1-0.1-0.2,0-0.2,0c-0.1,0-0.1,0-0.1-0.1
	c0,0,0-0.1,0,0c0,0,0.2,0.1,0.3,0.1l1.6-0.7c-0.3,0.4-0.7,0.8-1.2,1.2c-0.5,0.4-1,0.7-1.6,0.9c-0.1-0.7-0.1-1.3-0.1-1.9
	c0.1-0.6,0.2-1.1,0.4-1.6l0.3-0.9l1.2,0.2c0.6,0.1,1.3,0.6,1.6,1.1c0.3,0.5,0.4,1,0.4,1.6c0,0.5-0.1,1-0.5,1.5
	c-0.3,0.5-0.9,0.9-1.5,1l-3.1,0.4l1.7-2c0.3-0.3,0.5-0.6,0.9-0.9C166.1,189.9,166.5,189.7,167,189.4z"/>
<path class="st8" d="M160.8,214.3c-0.1-0.4,0.2-0.8,0.6-0.9c0.4-0.2,0.9-0.2,1.3,0.1c0.5,0.2,0.9,0.9,0.9,1.5c0,0.7-0.3,1.2-0.6,1.6
	c-0.4,0.4-0.9,0.6-1.6,0.6c-0.7,0-1.3-0.4-1.5-0.9c-0.3-0.5-0.3-0.9-0.1-1.3C160,214.6,160.4,214.3,160.8,214.3
	c0.1,0.4,0.3,0.5,0.5,0.6c0.2,0,0.4,0,0.4-0.2c0-0.1-0.2-0.4-0.4-0.4c-0.2,0-0.3,0-0.4,0.1c-0.1,0.1-0.1,0.2-0.1,0.4
	c0,0.2,0.2,0.4,0.4,0.4c0.1,0,0.2-0.2,0.2-0.4C161.3,214.7,161.2,214.4,160.8,214.3z"/>
<path class="st8" d="M140.9,169c11.2-5.9,21.4-13.7,29.7-23.2c4.1-4.7,8-9.8,11-15.3c2.9-5.5,5-11.5,5-17.6c0-3-0.6-6-1.7-8.8
	c-1.1-2.8-2.8-5.3-4.9-7.5c-1.1-1-2.2-2-3.5-2.7c-0.6-0.4-1.3-0.6-2-1c-0.3-0.1-0.7-0.2-1-0.4c-0.3-0.1-0.7-0.2-1-0.3l-1.1-0.2
	c-0.4,0-0.7-0.1-1.1-0.1c-0.7-0.1-1.5,0-2.2-0.1c-1.5,0.1-2.9,0.3-4.4,0.7c-5.9,1.5-11.4,4.7-17.8,6.5c-3.2,0.9-6.5,1.3-9.8,1.4
	c-3.3,0.1-6.5-0.1-9.7-0.4c-6.3-0.5-12.6-1.2-18.6-0.3c-6,1-11.6,3.7-16.3,7.6c-4.6,3.9-8.4,9-10.6,14.7c-2.2,5.7-2.9,12-1.9,18
	c0.5,3,1.3,6,2.4,8.9c1.2,2.9,2.7,5.6,4.5,8.1c1.8,2.5,3.9,4.9,6.2,6.9c2.4,2,5,3.7,7.7,5.1c5.5,2.9,11.8,4.3,18,4.5
	c3.1,0.1,6.3-0.2,9.4-0.8c3.1-0.6,6.1-1.5,9.1-2.7c-11.4,5.6-25.4,5.7-37.1,0.3c-2.9-1.4-5.7-3.1-8.2-5.2c-2.5-2-4.7-4.5-6.7-7
	c-1.9-2.6-3.6-5.4-4.9-8.4c-1.3-3-2.2-6.1-2.8-9.3c-0.6-3.2-0.8-6.5-0.5-9.8c0.3-3.3,1-6.5,2.2-9.6c1.1-3.1,2.7-6,4.6-8.7
	c1.9-2.7,4.1-5.1,6.6-7.3c5-4.3,11.2-7.2,17.7-8.3c6.6-1,13-0.3,19.3,0.2c6.3,0.5,12.5,0.8,18.4-0.8c5.9-1.6,11.4-4.9,17.9-6.5
	c1.6-0.4,3.3-0.6,5-0.7c0.9,0,1.7,0,2.6,0.1c0.4,0.1,0.8,0.1,1.3,0.2l1.3,0.3c0.4,0.1,0.8,0.2,1.2,0.4c0.4,0.1,0.8,0.3,1.2,0.4
	c0.8,0.4,1.6,0.7,2.3,1.2c1.5,0.8,2.8,2,4,3.1c4.7,4.8,7.3,11.5,7.1,18.2c-0.1,6.6-2.5,12.9-5.7,18.5c-3.2,5.6-7.2,10.6-11.5,15.3
	C162.9,156.1,152.5,163.7,140.9,169z"/>
<path class="st8" d="M289.8,173.8c-11.2-6-21.1-14.3-29.2-24.2c-4-5-7.7-10.2-10.5-16c-2.8-5.8-4.8-12.2-4.4-18.8
	c0.2-6.6,3.2-13.2,8.2-17.7c1.3-1.1,2.7-2.1,4.2-2.9c0.7-0.4,1.6-0.7,2.4-1c0.4-0.1,0.8-0.2,1.2-0.4c0.4-0.1,0.8-0.2,1.3-0.3
	l1.3-0.2c0.4,0,0.9,0,1.3-0.1c0.9-0.1,1.7,0,2.6,0.1c1.7,0.2,3.3,0.5,4.9,1c6.4,2,11.7,5.6,17.5,7.6c5.7,2,12,2.1,18.3,2
	c6.3-0.1,12.8-0.4,19.3,1c6.5,1.5,12.4,4.9,17.1,9.5c2.3,2.3,4.4,4.9,6.1,7.7c1.7,2.8,3.1,5.8,4.1,8.9c1,3.1,1.5,6.4,1.6,9.7
	c0.1,3.3-0.3,6.6-1.1,9.7c-0.8,3.2-1.9,6.2-3.4,9.1c-1.5,2.9-3.3,5.6-5.4,8.1c-2.1,2.5-4.5,4.7-7.1,6.6c-2.6,1.9-5.5,3.4-8.5,4.6
	c-12,4.7-26,3.6-37.1-2.7c2.8,1.4,5.8,2.5,8.9,3.3c3.1,0.8,6.2,1.3,9.3,1.4c6.3,0.2,12.6-0.8,18.3-3.3c2.9-1.2,5.6-2.8,8.1-4.6
	c2.5-1.8,4.7-4.1,6.6-6.5c1.9-2.4,3.6-5,5-7.8c1.3-2.8,2.3-5.7,3-8.7c1.4-6,1.1-12.3-0.7-18.1c-1.8-5.8-5.3-11.1-9.7-15.3
	c-4.4-4.2-9.9-7.3-15.8-8.6c-6-1.3-12.2-1-18.6-0.9c-3.2,0.1-6.4,0.1-9.7-0.2c-3.2-0.3-6.5-0.9-9.6-2c-6.2-2.2-11.5-5.8-17.3-7.7
	c-1.4-0.5-2.9-0.8-4.4-1c-0.7,0-1.5-0.1-2.2-0.1c-0.4,0-0.7,0-1.1,0l-1.1,0.2c-0.4,0-0.7,0.1-1.1,0.2c-0.3,0.1-0.7,0.2-1.1,0.3
	c-0.7,0.3-1.4,0.5-2,0.8c-1.3,0.6-2.5,1.5-3.7,2.4c-2.2,2-4.1,4.4-5.4,7.1c-1.3,2.7-2.1,5.7-2.3,8.7c-0.4,6.1,1.3,12.2,3.9,17.9
	c2.6,5.7,6.1,10.9,9.9,15.9C269.3,158.7,278.9,167.2,289.8,173.8z"/>
<path class="st8" d="M215.9,79.6c0.8,2.6,1.3,5.2,1.6,7.8c0.3,2.6,0.5,5.3,0.6,7.9c0,2.6-0.1,5.3-0.3,7.9c-0.3,2.6-0.7,5.2-1.4,7.8
	c-0.5-2.6-0.7-5.3-0.9-7.9c-0.2-2.6-0.3-5.2-0.3-7.8c0-2.6,0-5.2,0.1-7.8C215.3,84.9,215.4,82.3,215.9,79.6z"/>
<path class="st8" d="M206.9,50.7c0.4,1.9,0.5,3.8,0.3,5.7c-0.2,1.9-0.6,3.8-1.2,5.5c-0.6,1.8-1.4,3.5-2.4,5.1
	c-1,1.6-2.2,3.1-3.7,4.3c0.4-1.9,1-3.6,1.6-5.3l1.7-5.1l1.8-5.1C205.5,54.2,206.1,52.5,206.9,50.7z"/>
<path class="st8" d="M179.2,60.8c-0.3,1.8-1,3.5-2.1,5c-1.1,1.5-2.5,2.8-4,3.8c-3.1,2.1-6.6,3.3-10.3,3.9
	c-7.3,1.1-14.5,0.1-21.1,1.6c-3.3,0.7-6.5,2.1-9.6,3.7c-3.2,1.5-6.3,3.3-9.7,4.7c-3.4,1.4-7,2.3-10.7,2.4c-1.8,0-3.7-0.2-5.4-0.8
	c-1.8-0.6-3.4-1.5-4.7-2.7c3.1,1.9,6.7,2.4,10.1,2c3.4-0.4,6.7-1.5,9.8-3c3.1-1.6,6.2-3.4,9.3-5.1c3.2-1.7,6.6-3.3,10.3-4.1
	c7.4-1.5,14.6-0.3,21.5-0.9c3.4-0.3,6.8-1.2,9.8-2.8C175.4,66.7,178,64.2,179.2,60.8z"/>
<path class="st8" d="M251.6,66.2c1.8,2.8,4.8,4.5,7.9,5.3c3.1,0.8,6.4,0.9,9.6,0.5c3.3-0.3,6.6-0.9,10-1.1c3.4-0.2,7.1,0.2,10.4,1.3
	c6.7,2.2,12.3,6.1,17.9,9.6c2.8,1.7,5.7,3.4,8.7,4.7c3,1.3,6.2,2.1,9.6,2.3c-3.3,0.5-6.8,0-10.1-1c-3.3-1-6.4-2.4-9.4-4
	c-3-1.6-5.8-3.3-8.8-4.8c-2.9-1.6-5.8-3-8.9-3.9c-3-1-6.2-1.4-9.4-1.3c-3.2,0-6.6,0.5-10,0.6c-1.7,0-3.4,0.1-5.2-0.2
	c-1.7-0.2-3.4-0.6-5-1.3c-1.6-0.6-3.2-1.5-4.5-2.6C253.3,69.1,252.2,67.7,251.6,66.2z"/>
<path class="st8" d="M109.6,1.4c3.3,3.4,6.3,7.3,8.4,11.5c2.1,4.2,3.6,9,3.3,13.8c-0.2,2.4-0.7,4.8-1.6,7c-0.9,2.2-2.2,4.3-3.6,6.2
	c-2.9,3.8-6.4,7.1-9.8,10.4C99.5,57.1,93,64.1,87.8,72.1c-2.6,4-4.8,8.2-6.5,12.6c-1.7,4.4-2.9,9-3.7,13.7c-1.7,9.3-2,18.9-2,28.4
	l0,14.3c0,4.8-0.1,9.6-0.9,14.5c-0.8,4.8-2.4,9.7-5.3,13.8c-1.5,2-3.3,3.8-5.4,5.3c-2.1,1.5-4.4,2.7-6.9,3.3
	c-2.5,0.6-5.2,0.7-7.8,0.1c-2.6-0.6-4.9-1.9-6.9-3.5c-4-3.2-6.8-7.3-9.5-11.3c-10.5-16-20-32.8-27.1-50.7c-1.8-4.5-3.3-9.1-4.4-13.8
	c-1.1-4.7-1.6-9.6-1.3-14.5c0.4-4.9,1.6-9.7,3.9-14.1c2.3-4.4,5.9-8,10-10.6c8.3-5.2,17.9-7.1,26.5-11c2.2-0.9,4.3-2.1,6.3-3.3
	c2-1.2,3.9-2.7,5.7-4.3c3.6-3.1,6.7-6.7,9.8-10.4c3-3.7,6-7.4,9.3-10.9c3.3-3.5,6.9-6.6,10.7-9.5c3.8-2.8,7.9-5.4,12.3-7.4l1.6-0.7
	c0.6-0.2,1.1-0.4,1.7-0.6c1.1-0.4,2.3-0.6,3.5-1c2.3-0.4,4.8-0.6,7.1-0.1l0,0L109.6,1.4z M109.6,1.4l-1.1-0.9l0,0
	c-2.4-0.4-4.8-0.3-7.1,0.1c-1.1,0.3-2.3,0.5-3.4,1c-0.6,0.2-1.1,0.4-1.7,0.6L94.6,3c-4.4,1.9-8.4,4.5-12.2,7.4
	c-3.8,2.9-7.4,6.1-10.6,9.6c-3.2,3.5-6.1,7.3-9.1,11c-3,3.7-6.1,7.4-9.6,10.6c-1.8,1.6-3.6,3.1-5.7,4.5c-2,1.3-4.1,2.5-6.3,3.5
	c-4.4,2-8.9,3.6-13.4,5.3c-4.5,1.7-8.8,3.5-12.7,6.1c-3.9,2.6-7.2,6-9.3,10.2c-2.1,4.1-3.2,8.7-3.5,13.4c-0.3,4.6,0.4,9.3,1.5,13.9
	c1.1,4.6,2.7,9,4.5,13.4c7.2,17.6,16.8,34.1,27.2,50c2.6,4,5.3,7.8,8.8,10.6c1.7,1.4,3.7,2.4,5.8,2.9c2.1,0.5,4.3,0.4,6.4-0.1
	c4.2-1.1,8.1-3.9,10.8-7.5c2.6-3.6,4.2-8.1,5-12.6c0.8-4.6,1-9.3,1.1-14.1l0.3-14.3c0.2-9.6,0.7-19.2,2.6-28.6
	c0.9-4.7,2.3-9.4,4.1-13.8c1.8-4.5,4.1-8.7,6.8-12.7c5.4-8,12.1-14.9,19-21.5c3.4-3.3,7-6.5,9.9-10.3c1.5-1.9,2.7-3.9,3.7-6.1
	c0.9-2.2,1.5-4.5,1.6-6.9c0.3-4.8-1.1-9.5-3.2-13.8C115.8,8.7,112.9,4.9,109.6,1.4z"/>
<path class="st8" d="M101.8,18.7c0.6,5.3-0.4,10.7-2.3,15.7c-1.9,5-4.7,9.7-7.8,14c-3.1,4.4-6.6,8.4-9.8,12.5
	c-3.3,4.1-6.4,8.3-8.9,12.8c-2.6,4.5-4.3,9.3-5.4,14.3c-1.1,5-1.6,10.2-1.9,15.5c-0.6,10.4-0.3,21.1-2.1,31.6
	c0.6-10.6-0.4-21-0.2-31.7c0-5.3,0.5-10.7,1.5-16c1.1-5.3,2.9-10.5,5.6-15.2c5.4-9.5,13-17,19.5-25.2c3.2-4.1,6.1-8.4,8.3-13.2
	C100.4,29.2,101.8,24,101.8,18.7z"/>
<path class="st8" d="M333.8,10.9c-3.5,3.2-6.8,6.7-9.2,10.7c-2.4,4-3.8,8.8-3.3,13.6c0.4,4.7,2.7,9.1,5.5,12.9
	c2.8,3.8,6.2,7.2,9.3,10.7c6.4,7,12.5,14.4,17.1,22.8c2.3,4.2,4.3,8.6,5.6,13.2c1.4,4.6,2.3,9.3,2.9,14c1.1,9.5,0.9,19.1,0.5,28.6
	l-0.6,14.2c-0.2,4.7-0.2,9.4,0.4,14c0.6,4.5,2,9,4.6,12.7c2.6,3.6,6.3,6.5,10.5,7.6c2.1,0.5,4.3,0.6,6.3,0.1c2.1-0.5,4-1.5,5.8-2.8
	c3.6-2.7,6.4-6.4,9.2-10.2c11.3-15.1,21.8-30.9,30.1-47.9c2-4.2,3.9-8.5,5.3-13c1.4-4.4,2.3-9,2.3-13.7c0-4.6-0.8-9.3-2.6-13.5
	c-1.8-4.2-4.8-7.9-8.5-10.7c-3.7-2.8-7.9-4.9-12.2-6.9c-4.3-2-8.7-3.8-12.9-6.1c-2.1-1.1-4.1-2.4-6.1-3.8c-1.9-1.4-3.7-3-5.4-4.8
	c-3.3-3.4-6.2-7.3-8.9-11.1c-2.7-3.9-5.4-7.8-8.3-11.5c-2.9-3.7-6.3-7.1-10-10.1c-3.7-3-7.6-5.7-11.9-7.8c-2.1-1-4.4-1.9-6.7-2.5
	c-2.3-0.6-4.7-0.8-7.1-0.5l0,0L333.8,10.9z M333.8,10.9l2-1.7l0,0c2.4-0.3,4.8-0.1,7.1,0.4c2.3,0.6,4.5,1.4,6.7,2.4
	c4.3,2.1,8.2,4.8,11.9,7.7c3.7,3,7.1,6.3,10.1,10c3,3.7,5.7,7.6,8.5,11.5c2.8,3.8,5.7,7.6,9.1,10.9c1.7,1.6,3.5,3.2,5.4,4.6
	c1.9,1.4,3.9,2.6,6,3.6c4.2,2.2,8.6,3.9,13,5.8c4.4,1.9,8.7,3.9,12.6,6.8c1.9,1.5,3.8,3.1,5.3,5c1.6,1.9,2.9,4,3.9,6.2
	c2,4.5,3,9.4,3,14.2c0.1,4.9-0.8,9.7-2.1,14.3c-1.3,4.6-3.2,9.1-5.2,13.4c-8.1,17.3-18.7,33.3-30.1,48.6c-2.9,3.8-5.8,7.7-9.9,10.7
	c-2,1.5-4.4,2.7-6.9,3.3c-2.5,0.6-5.2,0.5-7.7-0.1c-2.5-0.7-4.8-1.9-6.8-3.4c-2-1.5-3.8-3.4-5.2-5.4c-2.9-4.2-4.3-9.1-4.9-13.9
	c-0.6-4.8-0.4-9.7-0.2-14.4l0.9-14.2c0.6-9.4,1-18.9,0.1-28.3c-0.5-4.7-1.3-9.3-2.6-13.9c-1.3-4.5-3.1-8.9-5.3-13.1
	c-4.4-8.3-10.4-15.8-16.6-22.9c-3.1-3.6-6.4-7-9.2-10.8c-2.8-3.8-5-8.3-5.4-13c-0.5-4.8,0.9-9.6,3.3-13.6
	C327,17.5,330.3,14.1,333.8,10.9z"/>
<path class="st8" d="M341.1,26.5c-0.3,5.3,0.7,10.5,2.7,15.3c1.9,4.8,4.5,9.4,7.5,13.7c5.9,8.6,13,16.6,17.8,26.4
	c2.3,4.9,3.8,10.2,4.6,15.5c0.7,5.4,0.7,10.7,0.4,16c-0.5,10.6-2.2,21-2.2,31.6c-1.2-10.5-0.2-21.2-0.1-31.7
	c0-5.2-0.1-10.5-0.9-15.6c-0.8-5.1-2.2-10-4.5-14.7c-2.2-4.7-5.1-9-8.1-13.3c-3-4.3-6.2-8.6-9-13.1c-2.8-4.5-5.3-9.3-6.9-14.5
	C340.8,37.2,340.1,31.7,341.1,26.5z"/>
<path class="st8" d="M212.5,125.9c-3.5-0.2-7,0-10.4,0.6c-3.4,0.6-6.7,1.9-9.8,3.5c-3.1,1.6-6,3.6-8.8,5.7c-2.7,2.2-5.4,4.4-7.9,6.8
	c-5,4.8-9.5,10.3-14.8,14.9c-5.3,4.6-11.4,8.2-17.9,10.9c-6.5,2.7-13.3,4.5-20,6.2c-3.4,0.9-6.8,1.7-10.1,2.6
	c-3.4,0.9-6.7,1.9-9.9,3.2c-3.2,1.3-6.3,3-9,5c-1.4,1-2.7,2.2-3.9,3.4c-1.2,1.3-2.2,2.6-3.1,4c-1.8,2.9-2.9,6.2-3.3,9.6
	c-0.4,3.4-0.2,6.8,0.6,10.2c1.5,6.7,4.6,13,8.4,18.8c3.9,5.7,8.2,11.2,12.9,16.3c9.4,10.2,20.3,19,32.2,26.1
	c23.7,14.4,51.4,22.1,79.1,21.6c27.7-0.4,55.1-9.2,78.4-24.1c11.6-7.5,22.4-16.4,31.7-26.8c4.6-5.2,8.9-10.7,12.7-16.4
	c1.9-2.9,3.6-5.9,4.9-9.1c1.3-3.2,2.2-6.5,2.4-9.9c0.2-3.4-0.1-6.8-1.3-10c-0.6-1.6-1.4-3.1-2.4-4.5c-1-1.3-2.2-2.5-3.6-3.4
	c-2.8-1.9-6.1-3.1-9.4-4.2c-3.3-1-6.7-1.8-10.1-2.6c-1.7-0.4-3.4-0.8-5.1-1.3c-1.7-0.4-3.4-1-5-1.5c-3.3-1.1-6.7-2.1-10-3.3
	c-3.3-1.2-6.6-2.5-9.6-4.2c-3.1-1.7-6-3.6-8.8-5.7c-5.6-4.2-10.7-9-15.8-13.8c-5.1-4.8-10-9.8-14.9-14.7c-2.5-2.5-5-4.9-7.9-6.9
	c-2.9-2-6.1-3.5-9.4-4.4c-3.4-1-6.8-1.5-10.3-1.9C219.4,126.2,216,125.9,212.5,125.9z M212.5,125.9c3.5,0,7,0.2,10.5,0.6
	c3.5,0.4,6.9,0.9,10.3,1.8c3.4,0.9,6.6,2.4,9.5,4.4c2.9,2,5.4,4.4,7.9,6.8c5,4.9,9.9,9.9,15,14.7c5.1,4.8,10.2,9.5,15.8,13.7
	c2.8,2.1,5.7,4,8.8,5.6c3.1,1.6,6.3,2.9,9.6,4c3.3,1.1,6.6,2.1,10,3.2c1.7,0.5,3.3,1,5,1.5c1.7,0.4,3.4,0.8,5.1,1.2
	c3.4,0.8,6.8,1.5,10.2,2.5c3.4,1,6.7,2.2,9.7,4.2c1.5,1,2.9,2.2,4,3.7c1.1,1.4,2,3.1,2.6,4.7c1.3,3.4,1.8,7,1.6,10.6
	c-0.2,3.6-1.1,7.1-2.4,10.4c-1.3,3.3-3,6.4-4.9,9.4c-3.8,5.9-8.1,11.5-12.7,16.8c-4.6,5.3-9.6,10.3-15,14.9
	c-5.3,4.6-10.9,8.9-16.9,12.7c-23.6,15.3-51.5,24.4-79.8,24.9c-28.3,0.4-56.5-7.7-80.5-22.4c-6-3.7-11.8-7.8-17.2-12.3
	c-5.4-4.5-10.5-9.4-15.2-14.6c-4.7-5.2-9-10.8-12.9-16.7c-3.8-6-6.9-12.4-8.3-19.4c-0.7-3.5-0.9-7.1-0.5-10.7c0.5-3.6,1.7-7,3.7-10
	c1-1.5,2.1-2.9,3.3-4.2c1.3-1.3,2.6-2.4,4.1-3.5c2.9-2.1,6.1-3.7,9.3-5c3.3-1.3,6.7-2.3,10.1-3.1c3.4-0.9,6.8-1.7,10.2-2.5
	c6.8-1.6,13.6-3.4,20-6c6.5-2.6,12.6-6.1,17.8-10.7c5.3-4.5,9.7-10,14.8-14.8c2.5-2.4,5.2-4.6,8-6.8c2.8-2.1,5.7-4.1,8.8-5.7
	c3.1-1.6,6.4-2.8,9.9-3.4C205.5,125.8,209,125.7,212.5,125.9z"/>
<path class="st8" d="M253.8,290.4c14.7-2.7,29.1-6.6,42.9-11.8c13.9-5.2,27.2-11.7,39.7-19.7c12.3-8.1,24.4-17.2,32.6-29.6
	c4.1-6.1,7.4-12.9,9.3-20.1c0.9-3.6,1.5-7.3,1.6-11c0.1-3.7-0.3-7.4-1.4-11c2.4,7.1,2.2,14.9,0.6,22.2c-1.7,7.3-4.8,14.3-8.8,20.6
	c-4,6.4-9.1,12-14.6,17.1c-2.7,2.6-5.6,5-8.5,7.4c-2.9,2.3-6,4.5-9.1,6.7c-12.4,8.4-26.1,15.1-40.3,20
	C283.5,286.1,268.7,289.2,253.8,290.4z"/>
<path class="st8" d="M56.4,174.8c-3,11.7-1.9,24,2,35.1c2,5.6,4.6,10.9,7.8,15.9c3.2,5,6.8,9.6,11,13.9c4.1,4.3,8.5,8.2,13.3,11.8
	c4.7,3.7,9.7,6.9,14.8,10c10.2,6.1,21.1,11.3,32.2,15.9c-11.5-3.5-22.8-8.1-33.4-13.9c-5.3-2.9-10.4-6.2-15.3-9.8
	c-4.9-3.6-9.5-7.6-13.7-12c-4.2-4.4-8-9.2-11.2-14.5c-3.2-5.2-5.8-10.8-7.6-16.6c-1.8-5.8-2.8-11.9-2.9-18
	C53.3,186.5,54.3,180.4,56.4,174.8z"/>
<path class="st11" d="M85.8,252.4c2.4,7.2,6,13.9,10.4,20c4.4,6.1,9.7,11.5,15.5,16.3c11.6,9.6,25.3,16.3,39.7,20.6
	c14.4,4.3,29.3,6.7,44.3,8c15,1.3,30.1,1.5,45.1,0.3c15-1.2,29.8-3.9,44.1-8.4c14.3-4.6,28.1-10.7,41.2-18.2
	c6.5-3.7,12.8-7.9,18.7-12.5c5.9-4.6,11.4-9.7,16.3-15.5c2.4-2.9,4.7-5.9,6.7-9c2.1-3.1,3.8-6.4,5.1-9.9c1.3-3.5,2.2-7.2,2.7-10.9
	c0.4-3.7,0.6-7.5-0.1-11.3c0.9,3.7,1,7.5,0.7,11.3c-0.4,3.8-1.1,7.5-2.3,11.2c-1.2,3.6-2.8,7.1-4.8,10.4c-2,3.2-4.3,6.3-6.7,9.3
	c-4.8,5.9-10.4,11.2-16.3,16c-5.9,4.8-12.2,9.1-18.7,13c-6.5,3.9-13.3,7.4-20.3,10.5c-6.9,3.1-14,5.9-21.3,8.2
	c-14.5,4.7-29.6,7.5-44.7,8.8c-15.2,1.2-30.4,0.8-45.5-0.6c-15.1-1.4-30.2-3.8-44.7-8.5c-3.6-1.2-7.2-2.5-10.7-4
	c-3.5-1.5-7-3.1-10.3-4.9c-6.7-3.5-13.1-7.9-18.9-12.8c-5.8-5-10.9-10.7-15.2-16.9C91.3,266.6,88,259.6,85.8,252.4z"/>
<path class="st11" d="M202.6,311.2c0.5,1.7,0.7,3.3,0.8,4.9c0.1,1.6,0.1,3.3-0.1,4.9c-0.1,1.6-0.4,3.2-0.7,4.8
	c-0.4,1.6-0.8,3.2-1.6,4.8c-0.5-1.7-0.7-3.3-0.8-4.9c-0.1-1.6-0.1-3.3,0.1-4.9c0.1-1.6,0.4-3.2,0.7-4.8
	C201.4,314.3,201.8,312.7,202.6,311.2z"/>
<path class="st12" d="M198,323.8c-3.9,1.1-7.6,2.6-11,4.7c-3.4,2.1-6.4,4.8-8.8,8c-2.4,3.2-4,6.9-4.7,10.7
	c-0.7,3.9-0.4,7.9,0.4,11.7c1.8,7.6,6.4,14.4,12.6,19c6.1,4.7,14,6.8,21.6,6c7.6-0.7,14.8-4.5,19.3-10.8c4.5-6.2,6.6-14.3,5.2-22
	c-0.3-1.9-0.9-3.8-1.6-5.6c-0.7-1.8-1.5-3.6-2.5-5.4c-1.9-3.5-4.3-6.7-7.3-9.4c-3-2.6-6.4-4.7-10.3-5.9c-3.8-1.2-7.9-1.5-11.9-1.1
	l0,0L198,323.8z M198,323.8l1.1,0h0c4-0.4,8-0.2,11.9,1c3.8,1.1,7.4,3.1,10.5,5.7c3.1,2.6,5.7,5.8,7.8,9.2c1.1,1.7,2,3.5,2.8,5.4
	c0.8,1.9,1.5,3.8,2,5.8c1.8,8,0.1,16.8-4.6,23.7c-2.3,3.4-5.4,6.5-9.1,8.5c-3.7,2.1-7.8,3.3-11.9,3.8c-4.2,0.4-8.4,0-12.4-1.2
	c-4-1.2-7.8-3.2-11-5.8c-6.5-5.2-10.9-12.7-12.5-20.8c-0.7-4-0.8-8.2,0.1-12.2c0.9-4,2.8-7.7,5.3-10.8c2.5-3.2,5.7-5.7,9.1-7.8
	C190.4,326.4,194.1,324.8,198,323.8z"/>
<path class="st8" d="M103.6,609.9c-3.3,2.4-5.6,6-6.8,9.8c-1.1,3.8-1.3,7.9-0.1,11.7c0.6,1.9,1.4,3.6,2.5,5.2c1.1,1.6,2.5,2.9,4.1,4
	c3.1,2.3,6.9,3.4,10.8,4.1c2,0.4,4,0.6,6,0.9c2.1,0.2,4,0.5,5.9,0.4c3.9,0,7.9-0.6,11.6-1.9c3.7-1.3,7.3-3.1,10.2-5.6
	c3-2.5,5.3-5.9,6.6-9.8c-0.3,4.1-2.2,8.2-5.1,11.3c-3,3.1-6.7,5.4-10.7,6.9c-4,1.4-8.3,2.1-12.5,2.1c-2.1,0-4.3-0.3-6.3-0.5
	c-2-0.3-4.1-0.5-6.2-0.9c-4.1-0.8-8.3-2.2-11.8-4.9c-1.7-1.3-3.2-3-4.4-4.8c-1.2-1.8-2.1-3.9-2.6-6c-1-4.2-0.6-8.6,1-12.6
	C97.2,615.3,100,611.9,103.6,609.9z"/>
<path class="st13" d="M272.4,140.7c-0.2-7.6,2.8-15.1,8-20.7c2.6-2.8,5.7-5.1,9.2-6.7c3.5-1.6,7.3-2.5,11.2-2.7
	c7.7-0.3,15.6,2.6,21.4,8c2.9,2.7,5.2,6,6.8,9.6c1.6,3.6,2.5,7.6,2.5,11.5c0,4-0.7,7.9-2.2,11.6c-1.5,3.7-3.8,7-6.5,9.8
	c-5.6,5.6-13.4,8.7-21.2,8.6c-3.9-0.1-7.7-0.8-11.2-2.4c-3.5-1.5-6.7-3.7-9.4-6.4C275.6,155.8,272.4,148.3,272.4,140.7z
	 M272.4,140.7c0.1,3.8,0.9,7.5,2.4,11c1.5,3.5,3.8,6.6,6.5,9.1c2.7,2.6,6,4.5,9.5,5.8c3.5,1.3,7.2,1.8,10.9,1.7
	c3.7-0.2,7.3-1,10.6-2.5c3.3-1.5,6.3-3.7,8.8-6.3c5-5.3,7.7-12.4,7.6-19.6c-0.1-7.2-3.1-14.2-8.1-19.4c-2.6-2.5-5.6-4.6-8.9-6.1
	c-3.3-1.4-7-2.2-10.7-2.3c-7.4-0.1-14.8,2.8-20.1,8.1c-2.6,2.7-4.8,5.8-6.2,9.3C273.1,133.2,272.3,136.9,272.4,140.7z"/>
<path class="st13" d="M272.4,140.7c-0.2-15.9,12.5-29,28.4-29.2c1.8,0,3.6,0.1,5.3,0.4c2.1,1.3,4.1,2.9,5.9,4.7
	c4.7,4.8,7.6,10.8,8.7,17c-4.7-4.6-12.2-4.7-16.9,0c-4.7,4.7-4.8,12.3-0.2,17c3.9,4,10,4.7,14.6,2c-1.6,3.5-3.8,6.8-6.7,9.6
	c-3.1,3.1-6.7,5.4-10.5,6.9C285.4,169.1,272.6,156.5,272.4,140.7z"/>
<path class="st13" d="M105,134.4c-0.2-7.6,2.8-15.1,8-20.7c2.6-2.8,5.7-5.1,9.2-6.7c3.5-1.6,7.3-2.5,11.2-2.7
	c7.7-0.3,15.6,2.6,21.4,8c2.9,2.7,5.2,6,6.8,9.6c1.6,3.6,2.5,7.6,2.5,11.5c0,4-0.7,7.9-2.2,11.6c-1.5,3.7-3.8,7-6.5,9.8
	c-5.6,5.6-13.4,8.7-21.2,8.6c-3.9-0.1-7.7-0.8-11.2-2.4c-3.5-1.5-6.7-3.7-9.4-6.4C108.2,149.4,105.1,142,105,134.4z M105,134.4
	c0.1,3.8,0.9,7.5,2.4,11c1.5,3.5,3.8,6.6,6.5,9.1c2.7,2.6,6,4.5,9.5,5.8c3.5,1.3,7.2,1.8,10.9,1.7c3.7-0.2,7.3-1,10.6-2.5
	c3.3-1.5,6.3-3.7,8.8-6.3c5-5.3,7.7-12.4,7.6-19.6c-0.1-7.2-3.1-14.2-8.1-19.4c-2.6-2.5-5.6-4.6-8.9-6.1c-3.3-1.4-7-2.2-10.7-2.3
	c-7.4-0.1-14.8,2.8-20.1,8.1c-2.6,2.7-4.8,5.8-6.2,9.3C105.7,126.8,105,130.6,105,134.4z"/>
<path class="st13" d="M105,134.4c-0.2-15.9,12.5-29,28.4-29.2c1.8,0,3.6,0.1,5.3,0.4c2.1,1.3,4.1,2.9,5.9,4.7
	c4.7,4.8,7.6,10.8,8.7,17c-4.7-4.6-12.2-4.7-16.9,0c-4.7,4.7-4.8,12.3-0.2,17c3.9,4,10,4.7,14.6,2c-1.6,3.5-3.8,6.8-6.7,9.6
	c-3.1,3.1-6.7,5.4-10.5,6.9C118.1,162.8,105.3,150.1,105,134.4z"/>
<path class="st8" d="M413.4,611.3l9.7,0.4c3.2,0.1,6.4,0.1,9.6,0c3.2-0.1,6.4-0.3,9.6-0.5l9.7-0.9c-3,1.5-6.1,2.5-9.4,3.2
	c-3.2,0.7-6.5,1.1-9.8,1.2c-3.3,0.1-6.6-0.1-9.9-0.7C419.7,613.5,416.5,612.6,413.4,611.3z"/>
<path class="st8" d="M174.5,528.2c-1.7,3.7-2.6,7.5-3.1,11.5c-0.5,3.9-0.4,7.9-0.1,11.8c0.3,3.9,0.9,7.8,1.8,11.7
	c0.9,3.8,1.9,7.6,3.3,11.3c1.4,3.7,3.1,7.2,5.2,10.4c2.1,3.3,4.6,6.3,7.3,9.2c5.5,5.6,12,10.3,19.1,14c-7.6-2.6-14.8-6.8-20.8-12.3
	c-3-2.7-5.7-5.9-8-9.3c-2.3-3.4-4.2-7.1-5.6-11c-2.8-7.7-4.5-15.8-4.6-23.9c-0.1-4.1,0.2-8.2,1-12.2
	C170.8,535.5,172.2,531.6,174.5,528.2z"/>
<path class="st8" d="M165.9,623c-0.5-2.1-0.9-4.3-0.9-6.5c0-2.2,0.3-4.5,1.3-6.7c0.5-1.1,1.1-2.1,2-3c0.4-0.4,0.9-0.9,1.4-1.2
	c0.5-0.4,1-0.7,1.5-1c1.1-0.6,2.4-1,3.8-0.9c1.4,0,2.8,0.6,3.8,1.4l-0.5-0.3c1.1,0.3,2.1,0.7,3.2,1c1,0.3,2,0.5,3.1,0.7
	c2.1,0.4,4.3,0.5,6.5,0.6c2.2,0.1,4.4,0,6.7,0c2.2,0,4.5-0.2,6.8-0.1c-2.2,0.7-4.4,1.2-6.6,1.6c-2.2,0.4-4.5,0.8-6.8,0.9
	c-2.3,0.2-4.6,0.1-7-0.1c-1.2-0.1-2.4-0.4-3.5-0.7c-1.1-0.3-2.2-0.6-3.2-1l-0.3-0.1l-0.2-0.2c-1.2-1.1-2.8-1.1-4.5-0.3
	c-0.4,0.2-0.8,0.4-1.2,0.7c-0.4,0.3-0.7,0.5-1.1,0.8c-0.7,0.6-1.3,1.4-1.8,2.2c-1,1.7-1.6,3.6-1.9,5.7
	C166.1,618.7,166,620.8,165.9,623z"/>
<path class="st8" d="M158.5,605.3c0.5-1.2,1.5-2,2.7-2.5c1.2-0.5,2.4-0.7,3.6-0.6c1.2,0.1,2.4,0.5,3.5,1.1c1,0.6,2,1.5,2.5,2.6
	l-3.3-0.4c-1-0.1-2-0.2-2.9-0.3c-1-0.1-1.9-0.1-2.9-0.1C160.7,605.1,159.7,605.1,158.5,605.3z"/>
</svg>
